<?xml version="1.0" encoding="UTF-8" standalone="no"?>
<!-- Created with Inkscape (http://www.inkscape.org/) -->

<svg
   width="32"
   height="32"
   viewBox="0 0 8.4666666 8.4666666"
   version="1.1"
   id="svg1"
   inkscape:version="1.3.2 (091e20e, 2023-11-25, custom)"
   sodipodi:docname="logo 2.svg"
   xmlns:inkscape="http://www.inkscape.org/namespaces/inkscape"
   xmlns:sodipodi="http://sodipodi.sourceforge.net/DTD/sodipodi-0.dtd"
   xmlns="http://www.w3.org/2000/svg"
   xmlns:svg="http://www.w3.org/2000/svg">
  <sodipodi:namedview
     id="namedview1"
     pagecolor="#ffffff"
     bordercolor="#666666"
     borderopacity="1.0"
     inkscape:showpageshadow="2"
     inkscape:pageopacity="0.0"
     inkscape:pagecheckerboard="0"
     inkscape:deskcolor="#d1d1d1"
     inkscape:document-units="mm"
     showgrid="true"
     inkscape:zoom="45.254834"
     inkscape:cx="21.268446"
     inkscape:cy="23.5113"
     inkscape:window-width="3840"
     inkscape:window-height="2054"
     inkscape:window-x="2869"
     inkscape:window-y="-11"
     inkscape:window-maximized="1"
     inkscape:current-layer="layer4">
    <inkscape:grid
       id="grid1"
       units="px"
       originx="0"
       originy="0"
       spacingx="0.26458333"
       spacingy="0.26458333"
       empcolor="#ff3f65"
       empopacity="0.25098039"
       color="#0099e5"
       opacity="0.14901961"
       empspacing="8"
       dotted="false"
       gridanglex="30"
       gridanglez="30"
       visible="true" />
  </sodipodi:namedview>
  <defs
     id="defs1">
    <inkscape:path-effect
       effect="bspline"
       id="path-effect17"
       is_visible="true"
       lpeversion="1.3"
       weight="33.333333"
       steps="2"
       helper_size="0"
       apply_no_weight="true"
       apply_with_weight="true"
       only_selected="false"
       uniform="false" />
    <inkscape:path-effect
       effect="bspline"
       id="path-effect16"
       is_visible="true"
       lpeversion="1.3"
       weight="33.333333"
       steps="2"
       helper_size="0"
       apply_no_weight="true"
       apply_with_weight="true"
       only_selected="false"
       uniform="false" />
  </defs>
  <g
     inkscape:groupmode="layer"
     id="layer5"
     inkscape:label="Object"
     style="display:inline">
    <g
       inkscape:groupmode="layer"
       id="layer3"
       inkscape:label="InnerArcShape"
       style="display:inline">
      <path
         id="path10"
         style="fill:#fff75a;fill-opacity:1;stroke:#000000;stroke-width:0.0620115;stroke-linecap:butt;stroke-linejoin:miter;stroke-miterlimit:6.7;stroke-dasharray:none;stroke-opacity:1;paint-order:normal"
         inkscape:label="SemiCircle"
         d="M 4.7294251,0.2645965 A 3.9687364,3.9687364 0 0 0 2.1075009,1.2572651 H 2.1070165 L 0.76068848,0.26508097 1.7528726,1.6099555 1.7538416,1.61044 A 3.9687364,3.9687364 0 0 0 0.76068848,4.2333331 3.9687364,3.9687364 0 0 0 1.7538416,6.8562262 L 1.7528726,6.8571951 0.76068848,8.2020698 2.1075009,7.2098855 A 3.9687364,3.9687364 0 0 0 4.7294251,8.2020698 3.9687364,3.9687364 0 0 0 7.5359305,7.0398384 L 7.1851778,6.6890858 A 3.4726446,3.4726446 0 0 1 4.7294251,7.7059777 3.4726446,3.4726446 0 0 1 2.4553468,6.8576796 L 3.516325,5.7976703 A 1.9843683,1.9843683 0 0 0 4.7294251,6.2177014 1.9843683,1.9843683 0 0 0 6.7137934,4.2333331 1.9843683,1.9843683 0 0 0 4.7294251,2.2489648 1.9843683,1.9843683 0 0 0 3.516325,2.6689958 L 2.4553468,1.6089866 A 3.4726446,3.4726446 0 0 1 4.7294251,0.76068859 3.4726446,3.4726446 0 0 1 7.1851778,1.7775804 L 7.5359305,1.4268278 A 3.9687364,3.9687364 0 0 0 4.7294251,0.2645965 Z M 2.1050786,1.9592547 3.1650879,3.020233 a 1.9843683,1.9843683 0 0 0 -0.3614109,0.7547963 0.49609208,0.49609202 0 0 0 -4.844e-4,0 A 0.49609208,0.49609202 0 0 0 2.4970107,4.2333331 0.49609208,0.49609202 0 0 0 2.803677,4.6916369 1.9843683,1.9843683 0 0 0 3.1650879,5.4464333 L 2.1055631,6.5078959 A 3.4726446,3.4726446 0 0 1 2.1050786,6.5074115 3.4726446,3.4726446 0 0 1 1.2567805,4.2333331 3.4726446,3.4726446 0 0 1 2.1050786,1.9592547 Z M 4.7294251,2.7450568 A 1.4882761,1.488276 0 0 1 6.2177013,4.2333331 1.4882761,1.488276 0 0 1 4.7294251,5.7216093 1.4882761,1.488276 0 0 1 3.2939555,4.6092778 L 4.2333331,4.2333331 3.2939555,3.8573883 A 1.4882761,1.488276 0 0 1 4.7294251,2.7450568 Z" />
    </g>
    <g
       inkscape:groupmode="layer"
       id="layer2"
       inkscape:label="Arcs"
       style="display:inline" />
    <g
       inkscape:groupmode="layer"
       id="layer1"
       inkscape:label="DiagonalLines"
       style="display:inline" />
    <g
       inkscape:groupmode="layer"
       id="layer4"
       inkscape:label="Gems"
       style="display:inline">
      <ellipse
         style="fill:#2ce80b;fill-opacity:1;stroke:#000000;stroke-width:0.0620115;stroke-linecap:butt;stroke-linejoin:round;stroke-miterlimit:5.4;stroke-dasharray:none;stroke-opacity:1;paint-order:stroke fill markers"
         id="path15-4"
         cx="6.3389974"
         cy="-3.3585408"
         rx="0.12402301"
         ry="0.24804603"
         transform="matrix(0.70710678,0.70710678,0.70710678,-0.70710678,0,0)"
         inkscape:label="GemDown" />
      <ellipse
         style="display:inline;fill:#2ce80b;fill-opacity:1;stroke:#000000;stroke-width:0.0620115;stroke-linecap:butt;stroke-linejoin:round;stroke-miterlimit:5.4;stroke-dasharray:none;stroke-opacity:1;paint-order:stroke fill markers"
         id="path15"
         cx="0.35216045"
         cy="2.6282964"
         rx="0.12402301"
         ry="0.24804603"
         transform="rotate(-45)"
         inkscape:label="GemUp" />
    </g>
  </g>
</svg>
