<?xml version="1.0" encoding="UTF-8" standalone="no"?>
<!-- Created with Inkscape (http://www.inkscape.org/) -->

<svg
   width="31.999998"
   height="31.999998"
   viewBox="0 0 8.4666661 8.4666661"
   version="1.1"
   id="svg1"
   inkscape:version="1.3.2 (091e20e, 2023-11-25, custom)"
   sodipodi:docname="logo 2.svg"
   inkscape:export-filename="logo_v1.png"
   inkscape:export-xdpi="1536"
   inkscape:export-ydpi="1536"
   xmlns:inkscape="http://www.inkscape.org/namespaces/inkscape"
   xmlns:sodipodi="http://sodipodi.sourceforge.net/DTD/sodipodi-0.dtd"
   xmlns="http://www.w3.org/2000/svg"
   xmlns:svg="http://www.w3.org/2000/svg">
  <sodipodi:namedview
     id="namedview1"
     pagecolor="#ffffff"
     bordercolor="#666666"
     borderopacity="1.0"
     inkscape:showpageshadow="2"
     inkscape:pageopacity="0.0"
     inkscape:pagecheckerboard="0"
     inkscape:deskcolor="#d1d1d1"
     inkscape:document-units="mm"
     showgrid="true"
     inkscape:zoom="32"
     inkscape:cx="16.328125"
     inkscape:cy="22.6875"
     inkscape:window-width="3840"
     inkscape:window-height="2054"
     inkscape:window-x="2869"
     inkscape:window-y="-11"
     inkscape:window-maximized="1"
     inkscape:current-layer="layer4">
    <inkscape:grid
       id="grid1"
       units="px"
       originx="0"
       originy="0"
       spacingx="0.26458333"
       spacingy="0.26458333"
       empcolor="#ff3f65"
       empopacity="0.25098039"
       color="#0099e5"
       opacity="0.14901961"
       empspacing="8"
       dotted="false"
       gridanglex="30"
       gridanglez="30"
       visible="true" />
  </sodipodi:namedview>
  <defs
     id="defs1" />
  <g
     inkscape:groupmode="layer"
     id="layer5"
     inkscape:label="Object">
    <g
       inkscape:groupmode="layer"
       id="layer1"
       inkscape:label="DiagonalLines"
       style="display:inline">
      <path
         id="path12"
         style="color:#000000;fill:#fff75a;stroke:#000000;stroke-width:0.0661458;stroke-miterlimit:16;stroke-dasharray:none;stroke-opacity:1;paint-order:stroke fill markers"
         d="M 0.86713053,0.26458333 1.8479492,1.6092041 v 5.168e-4 l 0.00103,0.00103 A 3.9233629,3.9687498 0 0 0 0.86713053,4.2333333 3.9233629,3.9687498 0 0 0 1.8489827,6.8559123 l -0.00103,0.00103 L 0.86713053,8.2020833 2.1983154,7.2098958 A 3.9233629,3.9687498 0 0 0 4.7904053,8.2020833 3.9233629,3.9687498 0 0 0 7.5649129,7.0398804 L 7.2181641,6.6889974 A 3.4329428,3.4726563 0 0 1 4.7904053,7.7059896 3.4329428,3.4726563 0 0 1 2.5424805,6.8579793 L 3.591512,5.7975789 A 1.9616815,1.9843749 0 0 0 4.3387533,6.159314 0.49042033,0.49609375 0 0 0 4.7904053,6.4657552 0.49042033,0.49609375 0 0 0 5.2394735,6.1644816 1.9616815,1.9843749 0 0 0 6.6988159,4.6896362 0.4904204,0.49609369 0 0 0 6.9975057,4.2333333 0.4904204,0.49609369 0 0 0 6.6988159,3.7770304 1.9616815,1.9843749 0 0 0 5.2415405,2.3027018 0.49042033,0.49609375 0 0 0 4.7904053,2.0009115 0.49042033,0.49609375 0 0 0 4.3387533,2.3073527 1.9616815,1.9843749 0 0 0 3.5925456,2.6680542 L 2.5429972,1.6081706 A 3.4329428,3.4726563 0 0 1 4.7904053,0.76067708 3.4329428,3.4726563 0 0 1 7.2181641,1.7776693 L 7.5649129,1.4267863 A 3.9233629,3.9687498 0 0 0 4.7904053,0.26458333 3.9233629,3.9687498 0 0 0 2.1983154,1.2567708 Z M 2.1967651,1.9585368 3.2452799,3.0184204 A 1.9616815,1.9843749 0 0 0 2.8861287,3.7765137 0.4904204,0.49609369 0 0 0 2.5838216,4.2333333 0.4904204,0.49609369 0 0 0 2.8861287,4.690153 1.9616815,1.9843749 0 0 0 3.2442464,5.446696 L 2.1962484,6.5076131 A 3.4329428,3.4726563 0 0 1 1.3575399,4.2333333 3.4329428,3.4726563 0 0 1 2.1967651,1.9585368 Z m 2.966744,0.8356079 A 1.4712611,1.488281 0 0 1 6.2130575,3.8560954 L 5.2808146,4.2333333 6.2130575,4.6105713 A 1.4712611,1.488281 0 0 1 5.1635091,5.672522 L 4.7904053,4.7294271 4.4188517,5.6689046 A 1.4712611,1.488281 0 0 1 3.3713704,4.609021 L 4.2999959,4.2333333 3.3713704,3.8576457 A 1.4712611,1.488281 0 0 1 4.4188517,2.797762 l 0.3715536,0.9394776 z" />
    </g>
    <g
       inkscape:groupmode="layer"
       id="layer4"
       inkscape:label="Gems">
      <ellipse
         style="fill:#2ce80b;fill-opacity:1;stroke:#000000;stroke-width:0.066148;stroke-linecap:butt;stroke-linejoin:round;stroke-miterlimit:5.4;stroke-dasharray:none;stroke-opacity:1;paint-order:stroke fill markers"
         id="path15-4"
         cx="6.3847384"
         cy="-3.2575212"
         rx="0.1233163"
         ry="0.24663261"
         transform="matrix(0.70302864,0.71116153,0.70302864,-0.71116153,0,0)"
         inkscape:label="GemDown" />
      <ellipse
         style="display:inline;fill:#2ce80b;fill-opacity:1;stroke:#000000;stroke-width:0.066148;stroke-linecap:butt;stroke-linejoin:round;stroke-miterlimit:5.4;stroke-dasharray:none;stroke-opacity:1;paint-order:stroke fill markers"
         id="path15"
         cx="0.4320356"
         cy="2.6951814"
         rx="0.1233163"
         ry="0.24663261"
         transform="matrix(0.70302864,-0.71116153,0.70302864,0.71116153,0,0)"
         inkscape:label="GemUp" />
    </g>
  </g>
</svg>
