<?xml version="1.0" encoding="UTF-8" standalone="no"?>
<!-- Created with Inkscape (http://www.inkscape.org/) -->

<svg
   width="32"
   height="32"
   viewBox="0 0 8.4666666 8.4666666"
   version="1.1"
   id="svg1"
   inkscape:version="1.3.2 (091e20e, 2023-11-25, custom)"
   sodipodi:docname="logo_addon.svg"
   inkscape:export-filename="logo_v1.png"
   inkscape:export-xdpi="1536"
   inkscape:export-ydpi="1536"
   xmlns:inkscape="http://www.inkscape.org/namespaces/inkscape"
   xmlns:sodipodi="http://sodipodi.sourceforge.net/DTD/sodipodi-0.dtd"
   xmlns="http://www.w3.org/2000/svg"
   xmlns:svg="http://www.w3.org/2000/svg">
  <sodipodi:namedview
     id="namedview1"
     pagecolor="#ffffff"
     bordercolor="#666666"
     borderopacity="1.0"
     inkscape:showpageshadow="2"
     inkscape:pageopacity="0.0"
     inkscape:pagecheckerboard="0"
     inkscape:deskcolor="#d1d1d1"
     inkscape:document-units="mm"
     showgrid="true"
     inkscape:zoom="45.254834"
     inkscape:cx="12.009767"
     inkscape:cy="17.810252"
     inkscape:window-width="3840"
     inkscape:window-height="2054"
     inkscape:window-x="2869"
     inkscape:window-y="-11"
     inkscape:window-maximized="1"
     inkscape:current-layer="layer1">
    <inkscape:grid
       id="grid1"
       units="px"
       originx="0"
       originy="0"
       spacingx="0.26458333"
       spacingy="0.26458333"
       empcolor="#ff3f65"
       empopacity="0.25098039"
       color="#0099e5"
       opacity="0.14901961"
       empspacing="8"
       dotted="false"
       gridanglex="30"
       gridanglez="30"
       visible="true" />
  </sodipodi:namedview>
  <defs
     id="defs1">
    <inkscape:path-effect
       effect="bspline"
       id="path-effect17"
       is_visible="true"
       lpeversion="1.3"
       weight="33.333333"
       steps="2"
       helper_size="0"
       apply_no_weight="true"
       apply_with_weight="true"
       only_selected="false"
       uniform="false" />
    <inkscape:path-effect
       effect="bspline"
       id="path-effect16"
       is_visible="true"
       lpeversion="1.3"
       weight="33.333333"
       steps="2"
       helper_size="0"
       apply_no_weight="true"
       apply_with_weight="true"
       only_selected="false"
       uniform="false" />
  </defs>
  <g
     inkscape:groupmode="layer"
     id="layer5"
     inkscape:label="Object">
    <g
       inkscape:groupmode="layer"
       id="layer1"
       inkscape:label="DiagonalLines"
       style="display:inline">
      <path
         id="path12"
         style="color:#000000;fill:#ffffff;fill-opacity:1;-inkscape-stroke:none"
         d="M 0.52916662,-1.5585734e-7 1.5874999,1.4345376 1.9657714,1.0583331 Z M 1.9657714,1.0583331 a 4.2333331,4.2333331 0 0 0 -0.1850016,0.1875855 0.26458332,0.13229166 45 0 1 0.278536,0.095085 0.26458332,0.13229166 45 0 1 0.093534,0.280603 A 0.26458332,0.13229166 45 0 1 1.8722371,1.5280719 0.26458332,0.13229166 45 0 1 1.7771524,1.2495359 4.2333331,4.2333331 0 0 0 0.52916662,4.2333331 4.2333331,4.2333331 0 0 0 1.7771524,7.2171303 0.13229166,0.26458332 45 0 1 1.8722371,6.9385944 0.13229166,0.26458332 45 0 1 2.1528401,6.84506 0.13229166,0.26458332 45 0 1 2.0593058,7.125663 0.13229166,0.26458332 45 0 1 1.7807698,7.2207477 4.2333331,4.2333331 0 0 0 1.9657714,7.4083331 4.2333331,4.2333331 0 0 0 4.7624999,8.4666665 4.2333331,4.2333331 0 0 0 7.7561157,7.2269489 L 7.3819783,6.8528115 A 3.7041667,3.7041667 0 0 1 4.7624999,7.9374998 3.7041667,3.7041667 0 0 1 2.3368082,7.0326455 L 3.4685221,5.9019651 A 2.1166666,2.1166666 0 0 0 4.2751912,6.2879881 0.5291666,0.52916667 0 0 0 4.7624999,6.6145831 0.5291666,0.52916667 0 0 0 5.2472249,6.2931557 2.1166666,2.1166666 0 0 0 6.8218058,4.7201251 0.52916667,0.5291666 0 0 0 7.1437499,4.2333331 0.52916667,0.5291666 0 0 0 6.8218058,3.7465411 2.1166666,2.1166666 0 0 0 5.2492919,2.1740273 0.5291666,0.52916667 0 0 0 4.7624999,1.8520831 0.5291666,0.52916667 0 0 0 4.2751912,2.1786782 2.1166666,2.1166666 0 0 0 3.4695556,2.5636676 L 2.3378417,1.4329873 A 3.7041667,3.7041667 0 0 1 4.7624999,0.52916651 3.7041667,3.7041667 0 0 1 7.3819783,1.6138548 L 7.7561157,1.2397174 A 4.2333331,4.2333331 0 0 0 4.7624999,-1.5585734e-7 4.2333331,4.2333331 0 0 0 1.9657714,1.0583331 Z m 0,6.35 L 1.5874999,7.0321287 0.52916662,8.4666665 Z M 1.9637044,1.8071246 3.0954182,2.9372882 A 2.1166666,2.1166666 0 0 0 2.707845,3.7460244 0.52916667,0.5291666 0 0 0 2.3812499,4.2333331 0.52916667,0.5291666 0 0 0 2.707845,4.7206419 2.1166666,2.1166666 0 0 0 3.0938679,5.527311 L 1.9637044,6.6595416 A 3.7041667,3.7041667 0 0 1 1.9631876,6.6590249 3.7041667,3.7041667 0 0 1 1.0583333,4.2333331 3.7041667,3.7041667 0 0 1 1.9637044,1.8071246 Z M 5.1650593,2.6985431 A 1.5874999,1.5874997 0 0 1 6.29729,3.8307737 L 5.2916666,4.2333331 6.29729,4.6358925 A 1.5874999,1.5874997 0 0 1 5.1650593,5.7681232 L 4.7624999,4.7624998 4.3614908,5.7645058 A 1.5874999,1.5874997 0 0 1 3.2313272,4.6343422 L 4.2333333,4.2333331 3.2313272,3.832324 A 1.5874999,1.5874997 0 0 1 4.3614908,2.7021604 l 0.4010091,1.0020061 z" />
    </g>
    <g
       inkscape:groupmode="layer"
       id="layer3"
       inkscape:label="InnerArcShape"
       style="display:inline" />
    <g
       inkscape:groupmode="layer"
       id="layer2"
       inkscape:label="Arcs" />
    <g
       inkscape:groupmode="layer"
       id="layer4"
       inkscape:label="Gems" />
  </g>
</svg>
